<mxfile host="Electron" agent="Mozilla/5.0 (Windows NT 10.0; Win64; x64) AppleWebKit/537.36 (KHTML, like Gecko) draw.io/26.0.16 Chrome/132.0.6834.196 Electron/34.2.0 Safari/537.36" version="26.0.16">
  <diagram name="PÃ¡gina-1" id="CJDququke3mxjc_G57P2">
    <mxGraphModel dx="1450" dy="1071" grid="0" gridSize="10" guides="1" tooltips="1" connect="1" arrows="1" fold="1" page="0" pageScale="1" pageWidth="827" pageHeight="1169" math="0" shadow="0">
      <root>
        <mxCell id="0" />
        <mxCell id="1" parent="0" />
        <mxCell id="-HvcAYdcsEwf5EU1BxSo-11" style="edgeStyle=none;curved=1;rounded=0;orthogonalLoop=1;jettySize=auto;html=1;exitX=0.5;exitY=0;exitDx=0;exitDy=0;entryX=0.5;entryY=1;entryDx=0;entryDy=0;fontSize=12;startSize=8;endSize=8;endArrow=none;startFill=0;" parent="1" source="-HvcAYdcsEwf5EU1BxSo-2" target="-HvcAYdcsEwf5EU1BxSo-3" edge="1">
          <mxGeometry relative="1" as="geometry" />
        </mxCell>
        <mxCell id="-HvcAYdcsEwf5EU1BxSo-12" style="edgeStyle=none;curved=1;rounded=0;orthogonalLoop=1;jettySize=auto;html=1;exitX=0.5;exitY=0;exitDx=0;exitDy=0;entryX=0.5;entryY=1;entryDx=0;entryDy=0;fontSize=12;startSize=8;endSize=8;endArrow=none;startFill=0;" parent="1" source="-HvcAYdcsEwf5EU1BxSo-2" target="-HvcAYdcsEwf5EU1BxSo-4" edge="1">
          <mxGeometry relative="1" as="geometry" />
        </mxCell>
        <mxCell id="-HvcAYdcsEwf5EU1BxSo-21" style="edgeStyle=none;curved=1;rounded=0;orthogonalLoop=1;jettySize=auto;html=1;exitX=1;exitY=0.5;exitDx=0;exitDy=0;entryX=0;entryY=0.5;entryDx=0;entryDy=0;fontSize=12;startSize=8;endSize=8;endArrow=none;startFill=0;" parent="1" source="-HvcAYdcsEwf5EU1BxSo-2" target="-HvcAYdcsEwf5EU1BxSo-19" edge="1">
          <mxGeometry relative="1" as="geometry" />
        </mxCell>
        <mxCell id="-HvcAYdcsEwf5EU1BxSo-24" value="1" style="edgeLabel;html=1;align=center;verticalAlign=middle;resizable=0;points=[];fontSize=12;" parent="-HvcAYdcsEwf5EU1BxSo-21" vertex="1" connectable="0">
          <mxGeometry x="0.0477" y="-1" relative="1" as="geometry">
            <mxPoint x="-1" y="-10" as="offset" />
          </mxGeometry>
        </mxCell>
        <mxCell id="-HvcAYdcsEwf5EU1BxSo-44" style="edgeStyle=none;curved=1;rounded=0;orthogonalLoop=1;jettySize=auto;html=1;exitX=0.5;exitY=0;exitDx=0;exitDy=0;entryX=0.5;entryY=1;entryDx=0;entryDy=0;fontSize=12;startSize=8;endSize=8;endArrow=none;startFill=0;" parent="1" source="-HvcAYdcsEwf5EU1BxSo-2" target="-HvcAYdcsEwf5EU1BxSo-43" edge="1">
          <mxGeometry relative="1" as="geometry" />
        </mxCell>
        <mxCell id="-HvcAYdcsEwf5EU1BxSo-2" value="Usuario" style="rounded=1;whiteSpace=wrap;html=1;" parent="1" vertex="1">
          <mxGeometry x="-115" y="-16" width="120" height="60" as="geometry" />
        </mxCell>
        <mxCell id="-HvcAYdcsEwf5EU1BxSo-3" value="Nome" style="ellipse;whiteSpace=wrap;html=1;fontSize=8;" parent="1" vertex="1">
          <mxGeometry x="-152" y="-80" width="60" height="30" as="geometry" />
        </mxCell>
        <mxCell id="-HvcAYdcsEwf5EU1BxSo-4" value="Senha" style="ellipse;whiteSpace=wrap;html=1;fontSize=8;" parent="1" vertex="1">
          <mxGeometry x="-20" y="-80" width="60" height="30" as="geometry" />
        </mxCell>
        <mxCell id="-HvcAYdcsEwf5EU1BxSo-13" style="edgeStyle=none;curved=1;rounded=0;orthogonalLoop=1;jettySize=auto;html=1;exitX=0.5;exitY=0;exitDx=0;exitDy=0;entryX=0.5;entryY=1;entryDx=0;entryDy=0;fontSize=12;startSize=8;endSize=8;endArrow=none;startFill=0;" parent="1" source="-HvcAYdcsEwf5EU1BxSo-6" target="-HvcAYdcsEwf5EU1BxSo-8" edge="1">
          <mxGeometry relative="1" as="geometry" />
        </mxCell>
        <mxCell id="-HvcAYdcsEwf5EU1BxSo-14" style="edgeStyle=none;curved=1;rounded=0;orthogonalLoop=1;jettySize=auto;html=1;exitX=0.5;exitY=0;exitDx=0;exitDy=0;entryX=0.5;entryY=1;entryDx=0;entryDy=0;fontSize=12;startSize=8;endSize=8;endArrow=none;startFill=0;" parent="1" source="-HvcAYdcsEwf5EU1BxSo-6" target="-HvcAYdcsEwf5EU1BxSo-9" edge="1">
          <mxGeometry relative="1" as="geometry" />
        </mxCell>
        <mxCell id="-HvcAYdcsEwf5EU1BxSo-22" style="edgeStyle=none;curved=1;rounded=0;orthogonalLoop=1;jettySize=auto;html=1;exitX=0;exitY=0.5;exitDx=0;exitDy=0;entryX=1;entryY=0.5;entryDx=0;entryDy=0;fontSize=12;endArrow=none;startFill=0;shape=link;" parent="1" source="-HvcAYdcsEwf5EU1BxSo-6" target="-HvcAYdcsEwf5EU1BxSo-19" edge="1">
          <mxGeometry relative="1" as="geometry" />
        </mxCell>
        <mxCell id="-HvcAYdcsEwf5EU1BxSo-23" value="N" style="edgeLabel;html=1;align=center;verticalAlign=middle;resizable=0;points=[];fontSize=12;" parent="-HvcAYdcsEwf5EU1BxSo-22" vertex="1" connectable="0">
          <mxGeometry x="0.0647" y="-1" relative="1" as="geometry">
            <mxPoint y="-10" as="offset" />
          </mxGeometry>
        </mxCell>
        <mxCell id="-HvcAYdcsEwf5EU1BxSo-6" value="Registro" style="rounded=1;whiteSpace=wrap;html=1;" parent="1" vertex="1">
          <mxGeometry x="240" y="-16" width="120" height="60" as="geometry" />
        </mxCell>
        <mxCell id="-HvcAYdcsEwf5EU1BxSo-8" value="Tipo" style="ellipse;whiteSpace=wrap;html=1;fontSize=8;" parent="1" vertex="1">
          <mxGeometry x="242" y="-78" width="60" height="30" as="geometry" />
        </mxCell>
        <mxCell id="-HvcAYdcsEwf5EU1BxSo-9" value="Data/Hora" style="ellipse;whiteSpace=wrap;html=1;fontSize=8;" parent="1" vertex="1">
          <mxGeometry x="302" y="-78" width="60" height="30" as="geometry" />
        </mxCell>
        <mxCell id="-HvcAYdcsEwf5EU1BxSo-18" value="" style="group" parent="1" vertex="1" connectable="0">
          <mxGeometry x="52" y="-26" width="140" height="80" as="geometry" />
        </mxCell>
        <mxCell id="-HvcAYdcsEwf5EU1BxSo-19" value="" style="rhombus;whiteSpace=wrap;html=1;fontStyle=1" parent="-HvcAYdcsEwf5EU1BxSo-18" vertex="1">
          <mxGeometry width="140" height="80" as="geometry" />
        </mxCell>
        <mxCell id="-HvcAYdcsEwf5EU1BxSo-20" value="REGISTRA" style="rhombus;whiteSpace=wrap;html=1;fontStyle=1" parent="-HvcAYdcsEwf5EU1BxSo-18" vertex="1">
          <mxGeometry x="7.5" y="5" width="125" height="70" as="geometry" />
        </mxCell>
        <mxCell id="-HvcAYdcsEwf5EU1BxSo-30" value="Usuario" style="shape=table;startSize=30;container=1;collapsible=1;childLayout=tableLayout;fixedRows=1;rowLines=0;fontStyle=1;align=center;resizeLast=1;html=1;" parent="1" vertex="1">
          <mxGeometry x="-131" y="125" width="180" height="120" as="geometry" />
        </mxCell>
        <mxCell id="-HvcAYdcsEwf5EU1BxSo-31" value="" style="shape=tableRow;horizontal=0;startSize=0;swimlaneHead=0;swimlaneBody=0;fillColor=none;collapsible=0;dropTarget=0;points=[[0,0.5],[1,0.5]];portConstraint=eastwest;top=0;left=0;right=0;bottom=1;" parent="-HvcAYdcsEwf5EU1BxSo-30" vertex="1">
          <mxGeometry y="30" width="180" height="30" as="geometry" />
        </mxCell>
        <mxCell id="-HvcAYdcsEwf5EU1BxSo-32" value="PK" style="shape=partialRectangle;connectable=0;fillColor=none;top=0;left=0;bottom=0;right=0;fontStyle=1;overflow=hidden;whiteSpace=wrap;html=1;" parent="-HvcAYdcsEwf5EU1BxSo-31" vertex="1">
          <mxGeometry width="30" height="30" as="geometry">
            <mxRectangle width="30" height="30" as="alternateBounds" />
          </mxGeometry>
        </mxCell>
        <mxCell id="-HvcAYdcsEwf5EU1BxSo-33" value="Username" style="shape=partialRectangle;connectable=0;fillColor=none;top=0;left=0;bottom=0;right=0;align=left;spacingLeft=6;fontStyle=5;overflow=hidden;whiteSpace=wrap;html=1;" parent="-HvcAYdcsEwf5EU1BxSo-31" vertex="1">
          <mxGeometry x="30" width="150" height="30" as="geometry">
            <mxRectangle width="150" height="30" as="alternateBounds" />
          </mxGeometry>
        </mxCell>
        <mxCell id="-HvcAYdcsEwf5EU1BxSo-34" value="" style="shape=tableRow;horizontal=0;startSize=0;swimlaneHead=0;swimlaneBody=0;fillColor=none;collapsible=0;dropTarget=0;points=[[0,0.5],[1,0.5]];portConstraint=eastwest;top=0;left=0;right=0;bottom=0;" parent="-HvcAYdcsEwf5EU1BxSo-30" vertex="1">
          <mxGeometry y="60" width="180" height="30" as="geometry" />
        </mxCell>
        <mxCell id="-HvcAYdcsEwf5EU1BxSo-35" value="" style="shape=partialRectangle;connectable=0;fillColor=none;top=0;left=0;bottom=0;right=0;editable=1;overflow=hidden;whiteSpace=wrap;html=1;" parent="-HvcAYdcsEwf5EU1BxSo-34" vertex="1">
          <mxGeometry width="30" height="30" as="geometry">
            <mxRectangle width="30" height="30" as="alternateBounds" />
          </mxGeometry>
        </mxCell>
        <mxCell id="-HvcAYdcsEwf5EU1BxSo-36" value="Nome" style="shape=partialRectangle;connectable=0;fillColor=none;top=0;left=0;bottom=0;right=0;align=left;spacingLeft=6;overflow=hidden;whiteSpace=wrap;html=1;" parent="-HvcAYdcsEwf5EU1BxSo-34" vertex="1">
          <mxGeometry x="30" width="150" height="30" as="geometry">
            <mxRectangle width="150" height="30" as="alternateBounds" />
          </mxGeometry>
        </mxCell>
        <mxCell id="-HvcAYdcsEwf5EU1BxSo-37" value="" style="shape=tableRow;horizontal=0;startSize=0;swimlaneHead=0;swimlaneBody=0;fillColor=none;collapsible=0;dropTarget=0;points=[[0,0.5],[1,0.5]];portConstraint=eastwest;top=0;left=0;right=0;bottom=0;" parent="-HvcAYdcsEwf5EU1BxSo-30" vertex="1">
          <mxGeometry y="90" width="180" height="30" as="geometry" />
        </mxCell>
        <mxCell id="-HvcAYdcsEwf5EU1BxSo-38" value="" style="shape=partialRectangle;connectable=0;fillColor=none;top=0;left=0;bottom=0;right=0;editable=1;overflow=hidden;whiteSpace=wrap;html=1;" parent="-HvcAYdcsEwf5EU1BxSo-37" vertex="1">
          <mxGeometry width="30" height="30" as="geometry">
            <mxRectangle width="30" height="30" as="alternateBounds" />
          </mxGeometry>
        </mxCell>
        <mxCell id="-HvcAYdcsEwf5EU1BxSo-39" value="Senha" style="shape=partialRectangle;connectable=0;fillColor=none;top=0;left=0;bottom=0;right=0;align=left;spacingLeft=6;overflow=hidden;whiteSpace=wrap;html=1;" parent="-HvcAYdcsEwf5EU1BxSo-37" vertex="1">
          <mxGeometry x="30" width="150" height="30" as="geometry">
            <mxRectangle width="150" height="30" as="alternateBounds" />
          </mxGeometry>
        </mxCell>
        <mxCell id="-HvcAYdcsEwf5EU1BxSo-43" value="&lt;u&gt;Username&lt;/u&gt;" style="ellipse;whiteSpace=wrap;html=1;fontSize=8;" parent="1" vertex="1">
          <mxGeometry x="-86" y="-80" width="60" height="30" as="geometry" />
        </mxCell>
        <mxCell id="-HvcAYdcsEwf5EU1BxSo-45" value="Registro" style="shape=table;startSize=30;container=1;collapsible=1;childLayout=tableLayout;fixedRows=1;rowLines=0;fontStyle=1;align=center;resizeLast=1;html=1;" parent="1" vertex="1">
          <mxGeometry x="97" y="125" width="180" height="150" as="geometry" />
        </mxCell>
        <mxCell id="-HvcAYdcsEwf5EU1BxSo-79" value="" style="shape=tableRow;horizontal=0;startSize=0;swimlaneHead=0;swimlaneBody=0;fillColor=none;collapsible=0;dropTarget=0;points=[[0,0.5],[1,0.5]];portConstraint=eastwest;top=0;left=0;right=0;bottom=1;" parent="-HvcAYdcsEwf5EU1BxSo-45" vertex="1">
          <mxGeometry y="30" width="180" height="30" as="geometry" />
        </mxCell>
        <mxCell id="-HvcAYdcsEwf5EU1BxSo-80" value="PK, FK" style="shape=partialRectangle;connectable=0;fillColor=none;top=0;left=0;bottom=0;right=0;fontStyle=1;overflow=hidden;whiteSpace=wrap;html=1;" parent="-HvcAYdcsEwf5EU1BxSo-79" vertex="1">
          <mxGeometry width="47.551724137930975" height="30" as="geometry">
            <mxRectangle width="47.551724137930975" height="30" as="alternateBounds" />
          </mxGeometry>
        </mxCell>
        <mxCell id="-HvcAYdcsEwf5EU1BxSo-81" value="Usuario" style="shape=partialRectangle;connectable=0;fillColor=none;top=0;left=0;bottom=0;right=0;align=left;spacingLeft=6;fontStyle=5;overflow=hidden;whiteSpace=wrap;html=1;" parent="-HvcAYdcsEwf5EU1BxSo-79" vertex="1">
          <mxGeometry x="47.551724137930975" width="132.448275862069" height="30" as="geometry">
            <mxRectangle width="132.448275862069" height="30" as="alternateBounds" />
          </mxGeometry>
        </mxCell>
        <mxCell id="AOtsCB0BOJQFCehfvic4-1" value="" style="shape=tableRow;horizontal=0;startSize=0;swimlaneHead=0;swimlaneBody=0;fillColor=none;collapsible=0;dropTarget=0;points=[[0,0.5],[1,0.5]];portConstraint=eastwest;top=0;left=0;right=0;bottom=1;" vertex="1" parent="-HvcAYdcsEwf5EU1BxSo-45">
          <mxGeometry y="60" width="180" height="30" as="geometry" />
        </mxCell>
        <mxCell id="AOtsCB0BOJQFCehfvic4-2" value="PK" style="shape=partialRectangle;connectable=0;fillColor=none;top=0;left=0;bottom=0;right=0;fontStyle=1;overflow=hidden;whiteSpace=wrap;html=1;" vertex="1" parent="AOtsCB0BOJQFCehfvic4-1">
          <mxGeometry width="47.551724137930975" height="30" as="geometry">
            <mxRectangle width="47.551724137930975" height="30" as="alternateBounds" />
          </mxGeometry>
        </mxCell>
        <mxCell id="AOtsCB0BOJQFCehfvic4-3" value="Data" style="shape=partialRectangle;connectable=0;fillColor=none;top=0;left=0;bottom=0;right=0;align=left;spacingLeft=6;fontStyle=5;overflow=hidden;whiteSpace=wrap;html=1;" vertex="1" parent="AOtsCB0BOJQFCehfvic4-1">
          <mxGeometry x="47.551724137930975" width="132.448275862069" height="30" as="geometry">
            <mxRectangle width="132.448275862069" height="30" as="alternateBounds" />
          </mxGeometry>
        </mxCell>
        <mxCell id="-HvcAYdcsEwf5EU1BxSo-46" value="" style="shape=tableRow;horizontal=0;startSize=0;swimlaneHead=0;swimlaneBody=0;fillColor=none;collapsible=0;dropTarget=0;points=[[0,0.5],[1,0.5]];portConstraint=eastwest;top=0;left=0;right=0;bottom=1;" parent="-HvcAYdcsEwf5EU1BxSo-45" vertex="1">
          <mxGeometry y="90" width="180" height="30" as="geometry" />
        </mxCell>
        <mxCell id="-HvcAYdcsEwf5EU1BxSo-47" value="PK" style="shape=partialRectangle;connectable=0;fillColor=none;top=0;left=0;bottom=0;right=0;fontStyle=1;overflow=hidden;whiteSpace=wrap;html=1;" parent="-HvcAYdcsEwf5EU1BxSo-46" vertex="1">
          <mxGeometry width="47.551724137930975" height="30" as="geometry">
            <mxRectangle width="47.551724137930975" height="30" as="alternateBounds" />
          </mxGeometry>
        </mxCell>
        <mxCell id="-HvcAYdcsEwf5EU1BxSo-48" value="Hora" style="shape=partialRectangle;connectable=0;fillColor=none;top=0;left=0;bottom=0;right=0;align=left;spacingLeft=6;fontStyle=5;overflow=hidden;whiteSpace=wrap;html=1;" parent="-HvcAYdcsEwf5EU1BxSo-46" vertex="1">
          <mxGeometry x="47.551724137930975" width="132.448275862069" height="30" as="geometry">
            <mxRectangle width="132.448275862069" height="30" as="alternateBounds" />
          </mxGeometry>
        </mxCell>
        <mxCell id="-HvcAYdcsEwf5EU1BxSo-49" value="" style="shape=tableRow;horizontal=0;startSize=0;swimlaneHead=0;swimlaneBody=0;fillColor=none;collapsible=0;dropTarget=0;points=[[0,0.5],[1,0.5]];portConstraint=eastwest;top=0;left=0;right=0;bottom=0;" parent="-HvcAYdcsEwf5EU1BxSo-45" vertex="1">
          <mxGeometry y="120" width="180" height="30" as="geometry" />
        </mxCell>
        <mxCell id="-HvcAYdcsEwf5EU1BxSo-50" value="" style="shape=partialRectangle;connectable=0;fillColor=none;top=0;left=0;bottom=0;right=0;editable=1;overflow=hidden;whiteSpace=wrap;html=1;" parent="-HvcAYdcsEwf5EU1BxSo-49" vertex="1">
          <mxGeometry width="47.551724137930975" height="30" as="geometry">
            <mxRectangle width="47.551724137930975" height="30" as="alternateBounds" />
          </mxGeometry>
        </mxCell>
        <mxCell id="-HvcAYdcsEwf5EU1BxSo-51" value="Tipo" style="shape=partialRectangle;connectable=0;fillColor=none;top=0;left=0;bottom=0;right=0;align=left;spacingLeft=6;overflow=hidden;whiteSpace=wrap;html=1;" parent="-HvcAYdcsEwf5EU1BxSo-49" vertex="1">
          <mxGeometry x="47.551724137930975" width="132.448275862069" height="30" as="geometry">
            <mxRectangle width="132.448275862069" height="30" as="alternateBounds" />
          </mxGeometry>
        </mxCell>
        <mxCell id="-HvcAYdcsEwf5EU1BxSo-55" style="edgeStyle=none;curved=1;rounded=0;orthogonalLoop=1;jettySize=auto;html=1;exitX=0;exitY=0.5;exitDx=0;exitDy=0;entryX=1;entryY=0.5;entryDx=0;entryDy=0;fontSize=12;startSize=8;endSize=8;" parent="1" source="-HvcAYdcsEwf5EU1BxSo-79" target="-HvcAYdcsEwf5EU1BxSo-31" edge="1">
          <mxGeometry relative="1" as="geometry" />
        </mxCell>
      </root>
    </mxGraphModel>
  </diagram>
</mxfile>
